<mxfile host="app.diagrams.net" modified="2023-10-03T06:00:51.866Z" agent="Mozilla/5.0 (Windows NT 10.0; Win64; x64) AppleWebKit/537.36 (KHTML, like Gecko) Chrome/117.0.0.0 Safari/537.36" etag="oMp5wZMGRIL3TEh45ikD" version="22.0.1" type="github">
  <diagram name="Page-1" id="7b-TLkdmapwtnApFMWqr">
    <mxGraphModel dx="3134" dy="782" grid="1" gridSize="10" guides="1" tooltips="1" connect="1" arrows="1" fold="1" page="1" pageScale="1" pageWidth="850" pageHeight="1100" math="0" shadow="0">
      <root>
        <mxCell id="0" />
        <mxCell id="1" parent="0" />
        <mxCell id="3t8BMXpidDIFDoh76zh9-1" value="" style="ellipse;whiteSpace=wrap;html=1;" vertex="1" parent="1">
          <mxGeometry x="-1600" y="230" width="120" height="80" as="geometry" />
        </mxCell>
        <mxCell id="3t8BMXpidDIFDoh76zh9-2" value="Actor" style="shape=umlActor;verticalLabelPosition=bottom;verticalAlign=top;html=1;outlineConnect=0;" vertex="1" parent="1">
          <mxGeometry x="-720" y="370" width="100" height="200" as="geometry" />
        </mxCell>
      </root>
    </mxGraphModel>
  </diagram>
</mxfile>
